<?xml version="1.0" encoding="UTF-8"?>
<svg xmlns="http://www.w3.org/2000/svg" version="1.1" viewBox="0 0 86 102.7">
  <defs>
    <style>
      .cls-1 {
        fill: none;
      }

      .cls-2 {
        fill: #35b863;
      }

      .cls-3 {
        fill: #aee3c1;
      }
    </style>
  </defs>
  <!-- Generator: Adobe Illustrator 28.7.1, SVG Export Plug-In . SVG Version: 1.2.0 Build 142)  -->
  <g>
    <g id="Layer_1">
      <g>
        <polygon class="cls-3" points="68.5 2 84 17.1 68.5 17.1 68.5 2"/>
        <path class="cls-3" d="M4,88.5l3.5,3.5,12.2-12,11.8,11.9,11.6-12,11.7,12,11.7-12,11.7,12,3.7-3.8,4,1.6-7.7,8-11.8-12-11.7,12-11.7-12-11.6,12-11.8-12-12.2,12-7.4-7.5,4-1.7Z"/>
        <g>
          <polygon class="cls-1" points="69.9 2 2 2 2 83.8 2 94.3 7.5 99.8 19.7 87.9 31.5 99.8 43.1 87.9 54.9 99.8 66.6 87.9 78.3 99.8 84 93.9 84 83.8 84 16.1 69.9 2"/>
          <path class="cls-2" d="M78.3,102.7l-11.8-12-11.7,12-11.7-12-11.6,12-11.8-12-12.2,12-7.5-7.5V0h70.7l15.3,15.3v79.4l-7.7,8ZM4,93.5l3.5,3.5,12.2-12,11.8,11.9,11.6-12,11.7,12,11.7-12,11.7,12,3.7-3.8V17l-12.9-13H4v89.5Z"/>
        </g>
        <g>
          <g>
            <g>
              <rect class="cls-2" x="18.4" y="31.8" width="18.4" height="3.8" transform="translate(-15.7 29.4) rotate(-45)"/>
              <rect class="cls-2" x="25.7" y="24.5" width="3.8" height="18.4" transform="translate(-15.8 29.4) rotate(-45)"/>
            </g>
            <g>
              <rect class="cls-2" x="49.2" y="31.8" width="18.4" height="3.8" transform="translate(-6.7 51.2) rotate(-45)"/>
              <rect class="cls-2" x="56.5" y="24.5" width="3.8" height="18.4" transform="translate(-6.7 51.2) rotate(-45)"/>
            </g>
          </g>
          <polygon class="cls-2" points="70 54.1 16 58.1 16 54.3 70 50.3 70 54.1"/>
        </g>
        <g>
          <rect class="cls-2" x="66.6" y="2" width="3.8" height="15.9"/>
          <rect class="cls-2" x="66.6" y="15.2" width="17.4" height="3.8"/>
        </g>
      </g>
    </g>
  </g>
</svg>